<svg id="Capa_1" enable-background="new 0 0 512.058 512.058" height="512" viewBox="0 0 512.058 512.058" width="512" xmlns="http://www.w3.org/2000/svg"><g><g><path d="m256.029 452.001h-73.488c6.951 34.232 37.203 60 73.488 60s66.537-25.768 73.488-60z" fill="#e6455a"/></g><g><path d="m329.517 452.001h-73.488v60c36.284 0 66.537-25.768 73.488-60z" fill="#b32437"/></g><g><path d="m120.751 240.942c-48.452 0-89.722-39.055-89.722-89.941v-136c0-5.449 2.959-10.474 7.72-13.11 4.761-2.651 10.576-2.505 15.205.381l114.565 71.279c21.519 13.374 36.46 36.288 41.03 61.103 8.882 48.426-18.673 106.288-88.798 106.288z" fill="#463f3f"/></g><g><path d="m391.293 240.942c-64.912 0-98.24-54.687-88.784-106.274 4.556-24.829 19.512-47.743 41.03-61.132l114.565-71.279c4.629-2.842 10.459-3.003 15.205-.366 4.761 2.651 7.72 7.661 7.72 13.11v136c0 50.406-40.758 89.941-89.736 89.941z" fill="#352c2c"/></g><g><path d="m61.029 41.998v109.003c0 22.983 12.803 43.594 33.413 53.804 39.211 19.343 96.004-8.184 85.591-64.731-3.032-16.523-13.008-31.128-27.363-40.063z" fill="#c86e59"/></g><g><path d="m417.631 204.805c20.596-10.21 33.398-30.835 33.398-53.804v-109.003l-91.641 58.012c-14.355 8.936-24.346 23.54-27.378 40.078-10.234 55.823 45.741 84.417 85.621 64.717z" fill="#a34f3e"/></g><path d="m349.296 121.074c-20.405-.793-36.183 6.491-50.118 13.951l-28.149 60.976 37.559 163.608 81.537 60.725c19.069-19.008 30.905-45.205 30.905-74.333v-147.085c-.001-41.25-32.183-76.172-71.734-77.842z" fill="#5b5555"/><path d="m162.763 121.074c-39.551 1.67-71.733 36.592-71.733 77.842v147.085c0 29 11.83 55.283 30.91 74.306l81.531-60.698 37.559-163.608-28.495-61.172c-13.836-7.414-29.462-14.606-49.772-13.755z" fill="#766e6e"/><path d="m390.125 420.335c-4.14-35.814-22.408-68.267-51.537-90.725-14.927-11.499-25.532-25.488-31.538-41.587-5.317-14.282-1.611-32.036 10.181-48.662 9.023-12.729 13.799-27.715 13.799-43.359 0-20.625-8.203-39.858-23.086-54.126-2.719-2.609-5.751-4.717-8.765-6.85-15.046 8.058-27.72 15.976-43.149 15.976-15.661 0-28.326-8.051-43.495-16.172-19.131 13.594-31.505 35.927-31.505 61.172 0 15.645 4.761 30.63 13.784 43.33 11.792 16.641 15.498 34.395 10.166 48.691-5.991 16.099-16.597 30.088-31.509 41.587-29.121 22.452-47.386 54.895-51.531 90.698-.599 5.169-.91 10.406-.91 15.694v31c0 25.915 22.407 46.282 45.835 45 37.764-.293 70.898-20.757 89.165-51.064 18.267 30.308 51.401 50.771 89.18 51.064h.337c24.985 0 45.483-19.975 45.483-45v-31c-.001-5.28-.308-10.509-.905-15.667z" fill="#fff5f5"/><path d="m345.209 512.001h.337c24.985 0 45.483-19.975 45.483-45v-31c0-5.279-.308-10.508-.905-15.667-4.14-35.814-22.408-68.267-51.537-90.725-14.927-11.499-25.532-25.488-31.538-41.587-5.317-14.282-1.611-32.036 10.181-48.662 9.023-12.729 13.799-27.715 13.799-43.359 0-20.625-8.203-39.858-23.086-54.126-2.719-2.609-5.751-4.717-8.765-6.85-15.046 8.058-27.72 15.976-43.149 15.976v309.936c18.267 30.307 51.402 50.771 89.18 51.064z" fill="#efe2dd"/><circle cx="166.029" cy="286.001" fill="#463f3f" r="15"/><circle cx="346.029" cy="286.001" fill="#352c2c" r="15"/><g><g><path d="m263.529 346.021h-7.5-7.5c-23.851-.353-37.5 5.74-37.5 29.98 0 24.814 20.186 45 45 45s45-20.186 45-45c0-24.397-13.652-30.126-37.5-29.98z" fill="#463f3f"/></g><g><path d="m301.029 376.001c0-24.397-13.652-30.126-37.5-29.98h-7.5v74.98c24.815 0 45-20.186 45-45z" fill="#352c2c"/></g></g></g></svg>